<?xml version="1.0" encoding="UTF-8"?>
<svg width="512px" height="432px" viewBox="0 0 512 432" version="1.1" xmlns="http://www.w3.org/2000/svg" xmlns:xlink="http://www.w3.org/1999/xlink">
    <!-- Generator: Sketch 44.1 (41455) - http://www.bohemiancoding.com/sketch -->
    <title>Group</title>
    <desc>Created with Sketch.</desc>
    <defs>
        <radialGradient cx="50%" cy="-18.3090884%" fx="50%" fy="-18.3090884%" r="113.852886%" gradientTransform="translate(0.500000,-0.183091),scale(0.848005,1.000000),rotate(90.000000),translate(-0.500000,0.183091)" id="radialGradient-1">
            <stop stop-color="#12D114FF" offset="0%"></stop>
            <stop stop-color="#FFFFFF" offset="19.4704608%"></stop>
            <stop stop-color="#0089FF" offset="100%"></stop>
        </radialGradient>
    </defs>
    <g id="Page-1" stroke="none" stroke-width="1" fill="none" fill-rule="evenodd">
        <g id="Group" fill-rule="nonzero">
            <g id="home" fill="#575757">
                <polygon id="Shape" points="512 256 416 160 416 16 352 16 352 96 256 0 0 256 0 272 64 272 64 432 224 432 224 336 288 336 288 432 448 432 448 272 512 272"></polygon>
            </g>
            <g id="diamond" transform="translate(255.861152, 322.133230) rotate(-345.000000) translate(-255.861152, -322.133230) translate(137.861152, 222.133230)">
                <path d="M117.688276,199.656782 C116.63978,199.656782 115.634081,199.193425 114.963614,198.387896 L0.841649489,62.9449528 C-0.228243929,61.6760663 -0.285304912,59.8368937 0.713262279,58.5109786 L43.508999,1.48237106 C44.1794656,0.584170491 45.2422263,0.0566558715 46.3620481,0.0566558715 L189.014504,0.0566558715 C190.134326,0.0566558715 191.197086,0.584170491 191.867553,1.48237106 L234.66329,58.5109786 C235.661857,59.8368937 235.604796,61.6760663 234.534903,62.9449528 L120.412938,198.387896 C119.742471,199.193425 118.736772,199.656782 117.688276,199.656782 Z" id="Shape" fill="url(#radialGradient-1)"></path>
                <path d="M117.688276,199.656782 C116.63978,199.656782 115.634081,199.193425 114.963614,198.387896 L0.841649489,62.9449528 C-0.228243929,61.6760663 -0.285304912,59.8368937 0.713262279,58.5109786 L43.508999,1.48237106 C44.1794656,0.584170491 45.2422263,0.0566558715 46.3620481,0.0566558715 L189.014504,0.0566558715 C190.134326,0.0566558715 191.197086,0.584170491 191.867553,1.48237106 L234.66329,58.5109786 C235.661857,59.8368937 235.604796,61.6760663 234.534903,62.9449528 L120.412938,198.387896 C119.742471,199.193425 118.736772,199.656782 117.688276,199.656782 Z M8.12405736,60.521237 L117.688276,190.560719 L227.252495,60.521237 L187.231348,7.18523181 L48.1452038,7.18523181 L8.12405736,60.521237 Z" id="Shape" fill="#7DB5FF"></path>
                <path d="M231.810241,64.2138393 L3.56631139,64.2138393 C1.5977075,64.2138393 0,62.6241669 0,60.6495514 C0,58.6749358 1.5977075,57.0852634 3.56631139,57.0852634 L231.810241,57.0852634 C233.778845,57.0852634 235.376552,58.6820644 235.376552,60.6495514 C235.376552,62.6170383 233.778845,64.2138393 231.810241,64.2138393 Z" id="Shape" fill="#7DB5FF"></path>
                <path d="M117.688276,199.656782 C117.331645,199.656782 116.967881,199.606882 116.618383,199.492825 C114.73537,198.901153 113.694007,196.898023 114.293148,195.023208 L157.088884,59.580265 C157.680892,57.7054495 159.699424,56.6504203 161.561039,57.2563492 C163.444051,57.848021 164.485414,59.8511509 163.886274,61.7259663 L121.090537,197.168909 C120.612651,198.687296 119.200392,199.656782 117.688276,199.656782 Z" id="Shape" fill="#7DB5FF"></path>
                <path d="M117.688276,199.656782 C116.17616,199.656782 114.763901,198.687296 114.286015,197.161781 L71.4902782,61.7188378 C70.8982705,59.8440223 71.9396334,57.8408924 73.8155132,57.2492206 C75.6985257,56.6432917 77.69566,57.6983209 78.2876677,59.5731364 L121.083404,195.016079 C121.675412,196.890895 120.634049,198.894025 118.758169,199.485696 C118.408671,199.606882 118.044907,199.656782 117.688276,199.656782 Z" id="Shape" fill="#7DB5FF"></path>
                <path d="M74.8925393,64.2138393 C73.5801367,64.2138393 72.3247951,63.4938532 71.6971243,62.2463524 L43.1666331,5.21774485 C42.2893205,3.4569866 43.0025828,1.31841381 44.7643406,0.434470396 C46.5332311,-0.442344444 48.6658853,0.27051315 49.5503305,2.03127141 L78.0808217,59.0598789 C78.9652669,60.8206372 78.244872,62.95921 76.4831142,63.8431534 C75.9766979,64.0926535 75.4346186,64.2138393 74.8925393,64.2138393 Z" id="Shape" fill="#7DB5FF"></path>
                <path d="M74.8925393,64.2138393 C74.1507465,64.2138393 73.4018211,63.9785963 72.7598851,63.5009817 C71.1835754,62.3176381 70.8626074,60.0863939 72.0466228,58.5109786 L114.84236,1.48237106 C116.026375,-0.0930442232 118.258886,-0.406701565 119.835195,0.769513466 C121.411505,1.95285707 121.732473,4.18410134 120.548458,5.75951662 L77.752721,62.7881242 C77.0465914,63.7219676 75.9766979,64.2138393 74.8925393,64.2138393 Z" id="Shape" fill="#7DB5FF"></path>
                <path d="M160.484013,64.2138393 C159.399854,64.2138393 158.329961,63.7219676 157.630964,62.7881242 L114.835227,5.75951662 C113.651212,4.18410134 113.97218,1.95285707 115.548489,0.769513466 C117.117666,-0.420958717 119.35731,-0.100172799 120.541325,1.48237106 L163.337062,58.5109786 C164.521077,60.0863939 164.200109,62.3176381 162.6238,63.5009817 C161.981864,63.9857249 161.232938,64.2138393 160.484013,64.2138393 Z" id="Shape" fill="#7DB5FF"></path>
                <path d="M160.484013,64.2138393 C159.949066,64.2138393 159.406987,64.0926535 158.893438,63.8360248 C157.13168,62.9520814 156.418418,60.8135086 157.29573,59.0527504 L185.826222,2.02414283 C186.710667,0.263384574 188.843321,-0.44947302 190.612211,0.42734182 C192.373969,1.31128524 193.087232,3.44985802 192.209919,5.21061628 L163.679428,62.2392238 C163.044624,63.4938532 161.789283,64.2138393 160.484013,64.2138393 Z" id="Shape" fill="#7DB5FF"></path>
            </g>
        </g>
    </g>
</svg>