<?xml version="1.0" encoding="UTF-8"?>
<svg width="379px" height="379px" viewBox="0 0 379 379" version="1.1" xmlns="http://www.w3.org/2000/svg" xmlns:xlink="http://www.w3.org/1999/xlink">
    <!-- Generator: Sketch 44.1 (41455) - http://www.bohemiancoding.com/sketch -->
    <title>Group 3</title>
    <desc>Created with Sketch.</desc>
    <defs>
        <radialGradient cx="50%" cy="-18.3090884%" fx="50%" fy="-18.3090884%" r="113.852886%" gradientTransform="translate(0.500000,-0.183091),scale(0.849888,1.000000),rotate(90.000000),translate(-0.500000,0.183091)" id="radialGradient-1">
            <stop stop-color="#12D114FF" offset="0%"></stop>
            <stop stop-color="#FFFFFF" offset="19.4704608%"></stop>
            <stop stop-color="#0089FF" offset="100%"></stop>
        </radialGradient>
    </defs>
    <g id="Page-1" stroke="none" stroke-width="1" fill="none" fill-rule="evenodd">
        <g id="Group" transform="translate(-67.000000, -53.000000)">
            <g id="Group-3" transform="translate(67.000000, 53.000000)">
                <g id="robot" fill-rule="nonzero" fill="#000000">
                    <path d="M173.021643,65.9134297 L147.480596,65.9134297 C142.930375,65.9134297 139.241787,69.6020176 139.241787,74.1522383 C139.241787,78.702459 142.930375,82.3910469 147.480596,82.3910469 L173.021643,82.3910469 C177.571863,82.3910469 181.260451,78.702459 181.260451,74.1522383 C181.260451,69.6020176 177.571863,65.9134297 173.021643,65.9134297 Z" id="Shape"></path>
                    <path d="M214.217166,49.4350723 C200.587971,49.4350723 189.5,60.523043 189.5,74.1522383 C189.5,87.7814336 200.587971,98.8694043 214.217166,98.8694043 C227.846361,98.8694043 238.934332,87.7814336 238.934332,74.1522383 C238.935072,60.523043 227.846361,49.4350723 214.217166,49.4350723 Z M214.217166,82.3910469 C209.674348,82.3910469 205.978357,78.6950566 205.978357,74.1522383 C205.978357,69.6094199 209.674348,65.9134297 214.217166,65.9134297 C218.759984,65.9134297 222.455975,69.6094199 222.455975,74.1522383 C222.456715,78.6950566 218.760725,82.3910469 214.217166,82.3910469 Z" id="Shape"></path>
                    <path d="M354.282834,205.346938 C368.48127,201.679076 379,188.761986 379,173.433953 C379,155.261939 364.216039,140.477238 346.043285,140.477238 L321.326119,140.477238 C320.898757,140.488095 296.181344,140.488095 247.173881,140.477238 L247.173881,131.826119 L263.652238,131.826119 C268.201719,131.826119 271.891047,128.137531 271.891047,123.587311 L271.891047,65.295334 C271.891047,29.2910742 242.599232,5.68434189e-14 206.596453,5.68434189e-14 L172.404287,5.68434189e-14 C136.400027,5.68434189e-14 107.108953,29.2910742 107.108953,65.295334 L107.108953,123.587311 C107.108953,128.137531 110.797541,131.826119 115.347762,131.826119 L131.826119,131.826119 L131.826119,140.477238 L58.6354453,140.477238 C58.2090703,140.487602 49.6494935,140.487602 32.9567148,140.477238 C14.7839609,140.477238 8.52651283e-14,155.261199 8.52651283e-14,173.433953 C8.52651283e-14,188.761986 10.5187305,201.679076 24.717166,205.347678 L41.1947832,206.389928 L49.4335918,206.389928 L49.4335918,239.072016 C49.4335918,288.969734 90.0287852,329.564928 139.926504,329.564928 L148.302996,329.564928 L148.302996,337.803736 C148.304477,360.519309 166.784428,379 189.5,379 C212.215572,379 230.695523,360.519309 230.695523,337.804477 L230.695523,329.565668 L239.072016,329.565668 C288.969734,329.565668 329.564928,288.970475 329.564928,239.072756 L329.564928,206.390668 L337.803736,206.390668 L354.282834,205.346938 Z M49.4350723,189.912311 L32.9567148,189.912311 C23.8703379,189.912311 16.4783574,182.52033 16.4783574,173.433953 C16.4783574,164.347576 23.8703379,156.955596 32.9567148,156.955596 L49.4350723,156.955596 L49.4350723,189.912311 Z M123.587311,115.347762 L123.587311,65.295334 C123.587311,38.3781914 145.487145,16.4783574 172.404287,16.4783574 L206.596453,16.4783574 C233.514336,16.4783574 255.41343,38.3781914 255.41343,65.295334 L255.41343,115.347762 L238.935072,115.347762 L140.064928,115.347762 L123.587311,115.347762 Z M230.695523,131.826119 L230.695523,140.477238 L148.304477,140.477238 L148.304477,131.826119 L230.695523,131.826119 Z M214.217166,337.804477 C214.217166,351.433672 203.129195,362.521643 189.5,362.521643 C175.870805,362.521643 164.782834,351.433672 164.782834,337.804477 L164.782834,329.565668 L214.217906,329.565668 L214.217906,337.804477 L214.217166,337.804477 Z M313.087311,198.151119 L313.087311,239.072756 C313.087311,279.884098 279.884098,313.087311 239.072756,313.087311 L222.456715,313.087311 L156.544025,313.087311 L139.927984,313.087311 C99.1159023,313.087311 65.9134297,279.884098 65.9134297,239.072756 L65.9134297,198.151119 L65.9134297,156.955596 L140.065668,156.955596 L238.935072,156.955596 L313.087311,156.955596 L313.087311,198.151119 Z M329.564928,189.912311 L329.564928,156.955596 L346.043285,156.955596 C355.129662,156.955596 362.521643,164.347576 362.521643,173.433953 C362.521643,182.52033 355.129662,189.912311 346.043285,189.912311 L329.564928,189.912311 Z" id="Shape"></path>
                    <path d="M255.247617,204.371309 C255.149166,203.844262 254.984094,203.324617 254.777568,202.830881 C254.571783,202.328262 254.316402,201.85007 254.019568,201.405189 C253.723475,200.952166 253.377785,200.531713 252.998045,200.152713 C252.619045,199.773713 252.198592,199.428023 251.745568,199.131189 C251.300688,198.834355 250.822496,198.578975 250.319877,198.373189 C249.8254,198.167404 249.307236,198.002332 248.780189,197.903881 C247.717213,197.689953 246.629809,197.689953 245.566832,197.903881 C245.039785,198.003072 244.520141,198.167404 244.026404,198.373189 C243.523785,198.578975 243.047074,198.834355 242.602193,199.131189 C242.14843,199.428023 241.727977,199.773713 241.348977,200.152713 C240.969977,200.531713 240.624287,200.952166 240.327453,201.405189 C240.031359,201.85007 239.775238,202.328262 239.569453,202.830881 C239.363668,203.325357 239.198596,203.844262 239.100885,204.371309 C238.992811,204.898355 238.935813,205.442428 238.935813,205.977617 C238.935813,206.512807 238.992811,207.056879 239.100885,207.583926 C239.198596,208.110973 239.363668,208.630617 239.569453,209.124354 C239.775238,209.626973 240.031359,210.105164 240.327453,210.550045 C240.624287,211.003068 240.969977,211.423521 241.348977,211.802521 C241.727977,212.181521 242.14843,212.527211 242.602193,212.824045 C243.047074,213.120879 243.523785,213.37626 244.026404,213.582045 C244.521621,213.78783 245.039785,213.952902 245.566832,214.051354 C246.093879,214.158688 246.637951,214.216426 247.173141,214.216426 C247.70759,214.216426 248.252402,214.158688 248.779449,214.051354 C249.306496,213.952162 249.826141,213.78783 250.319137,213.582045 C250.821756,213.37626 251.299947,213.120879 251.744828,212.824045 C252.197852,212.527211 252.618305,212.181521 252.997305,211.802521 C253.377045,211.423521 253.723475,211.003068 254.018828,210.550045 C254.315662,210.105164 254.571043,209.626973 254.776828,209.124354 C254.982613,208.629877 255.147686,208.110973 255.246137,207.583926 C255.353471,207.056879 255.411209,206.512807 255.411209,205.977617 C255.411949,205.442428 255.354211,204.899096 255.247617,204.371309 Z" id="Shape"></path>
                    <path d="M288.369404,173.433953 L205.978357,173.433953 C201.428877,173.433953 197.739549,177.122541 197.739549,181.672762 L197.739549,205.978357 C197.739549,210.528578 201.428877,214.217166 205.978357,214.217166 L222.456715,214.217166 C227.006195,214.217166 230.695523,210.528578 230.695523,205.978357 C230.695523,201.428137 227.006195,197.739549 222.456715,197.739549 L214.217906,197.739549 L214.217906,189.912311 L280.130596,189.912311 L280.130596,197.739549 L271.891787,197.739549 C267.342307,197.739549 263.652979,201.428137 263.652979,205.978357 C263.652979,210.528578 267.342307,214.217166 271.891787,214.217166 L288.370145,214.217166 C292.919625,214.217166 296.608953,210.528578 296.608953,205.978357 L296.608953,181.672762 C296.608953,177.122541 292.918885,173.433953 288.369404,173.433953 Z" id="Shape"></path>
                </g>
                <g id="diamond" transform="translate(106.000000, 192.000000)" fill-rule="nonzero">
                    <path d="M83.5,142.465517 C82.7560909,142.465517 82.0425455,142.136034 81.5668485,141.563241 L0.597151515,45.2528966 C-0.161939394,44.3506207 -0.202424242,43.0428276 0.506060606,42.1 L30.869697,1.54827586 C31.3453939,0.909586207 32.0994242,0.534482759 32.8939394,0.534482759 L134.106061,0.534482759 C134.900576,0.534482759 135.654606,0.909586207 136.130303,1.54827586 L166.493939,42.1 C167.202424,43.0428276 167.161939,44.3506207 166.402848,45.2528966 L85.4331515,141.563241 C84.9574545,142.136034 84.2439091,142.465517 83.5,142.465517 Z" id="Shape" fill="url(#radialGradient-1)"></path>
                    <path d="M83.5,142.465517 C82.7560909,142.465517 82.0425455,142.136034 81.5668485,141.563241 L0.597151515,45.2528966 C-0.161939394,44.3506207 -0.202424242,43.0428276 0.506060606,42.1 L30.869697,1.54827586 C31.3453939,0.909586207 32.0994242,0.534482759 32.8939394,0.534482759 L134.106061,0.534482759 C134.900576,0.534482759 135.654606,0.909586207 136.130303,1.54827586 L166.493939,42.1 C167.202424,43.0428276 167.161939,44.3506207 166.402848,45.2528966 L85.4331515,141.563241 C84.9574545,142.136034 84.2439091,142.465517 83.5,142.465517 Z M5.7640303,43.5294483 L83.5,135.997517 L161.23597,43.5294483 L132.840909,5.60344828 L34.1590909,5.60344828 L5.7640303,43.5294483 Z" id="Shape" fill="#7DB5FF"></path>
                    <path d="M164.469697,46.1551724 L2.53030303,46.1551724 C1.13357576,46.1551724 0,45.0247931 0,43.6206897 C0,42.2165862 1.13357576,41.0862069 2.53030303,41.0862069 L164.469697,41.0862069 C165.866424,41.0862069 167,42.2216552 167,43.6206897 C167,45.0197241 165.866424,46.1551724 164.469697,46.1551724 Z" id="Shape" fill="#7DB5FF"></path>
                    <path d="M83.5,142.465517 C83.2469697,142.465517 82.9888788,142.430034 82.7409091,142.348931 C81.4049091,141.928207 80.6660606,140.503828 81.0911515,139.17069 L111.454788,42.8603448 C111.874818,41.5272069 113.30697,40.777 114.627788,41.2078621 C115.963788,41.6285862 116.702636,43.0529655 116.277545,44.3861034 L85.9139091,140.696448 C85.5748485,141.776138 84.5728485,142.465517 83.5,142.465517 Z" id="Shape" fill="#7DB5FF"></path>
                    <path d="M83.5,142.465517 C82.4271515,142.465517 81.4251515,141.776138 81.0860909,140.691379 L50.7224545,44.3810345 C50.3024242,43.0478966 51.0412727,41.6235172 52.3722121,41.2027931 C53.7082121,40.771931 55.1251818,41.5221379 55.5452121,42.8552759 L85.9088485,139.165621 C86.3288788,140.498759 85.5900303,141.923138 84.2590909,142.343862 C84.0111212,142.430034 83.7530303,142.465517 83.5,142.465517 Z" id="Shape" fill="#7DB5FF"></path>
                    <path d="M53.1363636,46.1551724 C52.2052121,46.1551724 51.3145455,45.6432069 50.8692121,44.7561379 L30.6267879,4.20441379 C30.0043333,2.95237931 30.5103939,1.43168966 31.7603636,0.803137931 C33.0153939,0.179655172 34.5285152,0.686551724 35.1560303,1.93858621 L55.3984545,42.4903103 C56.0259697,43.7423448 55.5148485,45.2630345 54.2648788,45.8915862 C53.9055758,46.069 53.5209697,46.1551724 53.1363636,46.1551724 Z" id="Shape" fill="#7DB5FF"></path>
                    <path d="M53.1363636,46.1551724 C52.6100606,46.1551724 52.078697,45.9878966 51.6232424,45.6482759 C50.5048485,44.8068276 50.2771212,43.2202414 51.1171818,42.1 L81.4808182,1.54827586 C82.3208788,0.428034483 83.9048485,0.205 85.0232424,1.04137931 C86.1416364,1.88282759 86.3693636,3.46941379 85.529303,4.58965517 L55.1656667,45.1413793 C54.6646667,45.8054138 53.9055758,46.1551724 53.1363636,46.1551724 Z" id="Shape" fill="#7DB5FF"></path>
                    <path d="M113.863636,46.1551724 C113.094424,46.1551724 112.335333,45.8054138 111.839394,45.1413793 L81.4757576,4.58965517 C80.635697,3.46941379 80.8634242,1.88282759 81.9818182,1.04137931 C83.0951515,0.194862069 84.6841818,0.422965517 85.5242424,1.54827586 L115.887879,42.1 C116.727939,43.2202414 116.500212,44.8068276 115.381818,45.6482759 C114.926364,45.9929655 114.395,46.1551724 113.863636,46.1551724 Z" id="Shape" fill="#7DB5FF"></path>
                    <path d="M113.863636,46.1551724 C113.484091,46.1551724 113.099485,46.069 112.735121,45.8865172 C111.485152,45.2579655 110.979091,43.7372759 111.601545,42.4852414 L131.84397,1.93351724 C132.471485,0.681482759 133.984606,0.174586207 135.239636,0.798068966 C136.489606,1.42662069 136.995667,2.94731034 136.373212,4.19934483 L116.130788,44.751069 C115.680394,45.6432069 114.789727,46.1551724 113.863636,46.1551724 Z" id="Shape" fill="#7DB5FF"></path>
                </g>
                <g id="Group-2" transform="translate(30.000000, 192.000000)" fill="#000000">
                    <path d="M133.389679,14.0595657 L51.8898494,57.3937935 C55.3170818,71.6522246 48.8502132,87.0039187 35.3163632,94.1999944 C31.2987568,96.3361936 26.3102399,94.811051 24.1740407,90.7934445 C22.0378414,86.7758381 23.5629841,81.7873212 27.5805905,79.651122 C35.6033852,75.3853264 38.6597919,65.3882704 34.3939963,57.3654758 C30.1282007,49.3426811 20.1311448,46.2862744 12.1083501,50.5520699 C8.09074369,52.6882692 3.10222677,51.1631265 0.966027541,47.1455201 C-1.17017168,43.1279137 0.354970994,38.1393967 4.37257741,36.0031975 C17.9064274,28.8071218 34.2497856,32.0304032 44.1547303,42.8445736 L124.733654,-2.13162821e-14 L133.389679,14.0595657 Z" id="Path-Copy-2" transform="translate(66.694839, 47.583011) scale(-1, 1) translate(-66.694839, -47.583011) "></path>
                    <path d="M317.389679,14.0595657 L235.889849,57.3937935 C239.317082,71.6522246 232.850213,87.0039187 219.316363,94.1999944 C215.298757,96.3361936 210.31024,94.811051 208.174041,90.7934445 C206.037841,86.7758381 207.562984,81.7873212 211.580591,79.651122 C219.603385,75.3853264 222.659792,65.3882704 218.393996,57.3654758 C214.128201,49.3426811 204.131145,46.2862744 196.10835,50.5520699 C192.090744,52.6882692 187.102227,51.1631265 184.966028,47.1455201 C182.829828,43.1279137 184.354971,38.1393967 188.372577,36.0031975 C201.906427,28.8071218 218.249786,32.0304032 228.15473,42.8445736 L308.733654,-2.13162821e-14 L317.389679,14.0595657 Z" id="Path-Copy"></path>
                </g>
            </g>
        </g>
    </g>
</svg>