<?xml version="1.0" encoding="UTF-8"?>
<svg width="161px" height="161px" viewBox="0 0 161 161" version="1.1" xmlns="http://www.w3.org/2000/svg" xmlns:xlink="http://www.w3.org/1999/xlink">
    <!-- Generator: Sketch 44.1 (41455) - http://www.bohemiancoding.com/sketch -->
    <title>robot</title>
    <desc>Created with Sketch.</desc>
    <defs></defs>
    <g id="Page-1" stroke="none" stroke-width="1" fill="none" fill-rule="evenodd">
        <g id="Group" transform="translate(-67.000000, -271.000000)" fill-rule="nonzero" fill="#000000">
            <g id="robot" transform="translate(67.000000, 271.000000)">
                <path d="M73.499959,28.0001641 L62.6500684,28.0001641 C60.717125,28.0001641 59.1502051,29.567084 59.1502051,31.5000273 C59.1502051,33.4329707 60.717125,34.9998906 62.6500684,34.9998906 L73.499959,34.9998906 C75.4329023,34.9998906 76.9998223,33.4329707 76.9998223,31.5000273 C76.9998223,29.567084 75.4329023,28.0001641 73.499959,28.0001641 Z" id="Shape"></path>
                <path d="M90.9999043,21.000123 C85.2101934,21.000123 80.5,25.7103164 80.5,31.5000273 C80.5,37.2897383 85.2101934,41.9999316 90.9999043,41.9999316 C96.7896152,41.9999316 101.499809,37.2897383 101.499809,31.5000273 C101.500123,25.7103164 96.7896152,21.000123 90.9999043,21.000123 Z M90.9999043,34.9998906 C89.0701055,34.9998906 87.500041,33.4298262 87.500041,31.5000273 C87.500041,29.5702285 89.0701055,28.0001641 90.9999043,28.0001641 C92.9297031,28.0001641 94.4997676,29.5702285 94.4997676,31.5000273 C94.500082,33.4298262 92.9300176,34.9998906 90.9999043,34.9998906 Z" id="Shape"></path>
                <path d="M150.500096,126.443174 L150.500096,87.2318125 C156.531621,85.6736973 161,80.1864902 161,73.6751094 C161,65.9555996 154.719742,59.6750273 146.999918,59.6750273 L136.500014,59.6750273 C136.431148,59.6750273 136.363541,59.6813164 136.295619,59.6854043 C136.227697,59.6819453 136.160404,59.6750273 136.091539,59.6750273 L104.999986,59.6750273 L104.999986,56.0000137 L112.000027,56.0000137 C113.932656,56.0000137 115.499891,54.4330938 115.499891,52.5001504 L115.499891,27.7375957 C115.499891,12.4429102 103.056666,0 87.7626094,0 L73.2377051,0 C57.9430195,0 45.5001094,12.4429102 45.5001094,27.7375957 L45.5001094,52.5001504 C45.5001094,54.4330938 47.0670293,56.0000137 48.9999727,56.0000137 L56.0000137,56.0000137 L56.0000137,59.6750273 L24.9084609,59.6750273 C24.8395957,59.6750273 24.7726172,59.6819453 24.7046953,59.6854043 C24.6367734,59.6816309 24.569166,59.6750273 24.5003008,59.6750273 L14.000082,59.6750273 C6.28025781,59.6750273 0,65.9552852 0,73.6751094 C0,80.1864902 4.46837891,85.6736973 10.4999043,87.232127 L10.4999043,126.443174 C4.46837891,128.001289 0,133.488496 0,139.999877 C0,141.93282 1.56691992,143.49974 3.49986328,143.49974 C5.43280664,143.49974 6.99972656,141.93282 6.99972656,139.999877 C6.99972656,136.139965 10.1398555,132.999836 13.9997676,132.999836 C17.8596797,132.999836 20.9998086,136.139965 20.9998086,139.999877 C20.9998086,141.93282 22.5667285,143.49974 24.4996719,143.49974 C26.4326152,143.49974 27.9995352,141.93282 27.9995352,139.999877 C27.9995352,133.488496 23.5311562,128.001289 17.4996309,126.442859 L17.4996309,87.674877 L20.9994941,87.674877 L20.9994941,101.558297 C20.9994941,122.754953 38.244418,139.999877 59.4410742,139.999877 L62.9994258,139.999877 L62.9994258,143.49974 C63.0000547,153.149363 70.850377,161 80.5,161 C90.149623,161 97.9999453,153.149363 97.9999453,143.500055 L97.9999453,140.000191 L101.558297,140.000191 C122.754953,140.000191 139.999877,122.755268 139.999877,101.558611 L139.999877,87.6751914 L143.49974,87.6751914 L143.49974,126.443174 C137.468215,128.001289 132.999836,133.488811 132.999836,140.000191 C132.999836,141.933135 134.56707,143.500055 136.499699,143.500055 C138.432328,143.500055 139.999562,141.933135 139.999562,140.000191 C139.999562,136.140279 143.139691,133.00015 146.999604,133.00015 C150.859516,133.00015 153.999645,136.140279 153.999645,140.000191 C153.999645,141.933135 155.566879,143.500055 157.499508,143.500055 C159.432137,143.500055 160.999371,141.933135 160.999371,140.000191 C161,133.488496 156.531621,128.001289 150.500096,126.443174 Z M21.000123,80.6751504 L14.000082,80.6751504 C10.1401699,80.6751504 7.00004102,77.5350215 7.00004102,73.6751094 C7.00004102,69.8151973 10.1401699,66.6750684 14.000082,66.6750684 L21.000123,66.6750684 L21.000123,80.6751504 Z M52.5001504,48.9999727 L52.5001504,27.7375957 C52.5001504,16.3031367 61.8032461,7.00004102 73.2377051,7.00004102 L87.7626094,7.00004102 C99.1973828,7.00004102 108.500164,16.3031367 108.500164,27.7375957 L108.500164,48.9999727 L101.500123,48.9999727 L59.499877,48.9999727 L52.5001504,48.9999727 Z M97.9999453,56.0000137 L97.9999453,59.6750273 L63.0000547,59.6750273 L63.0000547,56.0000137 L97.9999453,56.0000137 Z M90.9999043,143.500055 C90.9999043,149.289766 86.2897109,153.999959 80.5,153.999959 C74.7102891,153.999959 70.0000957,149.289766 70.0000957,143.500055 L70.0000957,140.000191 L91.0002187,140.000191 L91.0002187,143.500055 L90.9999043,143.500055 Z M133.00015,84.1750137 L133.00015,101.558611 C133.00015,118.895355 118.895355,133.00015 101.558611,133.00015 L94.500082,133.00015 L66.5002324,133.00015 L59.4417031,133.00015 C42.1046445,133.00015 28.0001641,118.895355 28.0001641,101.558611 L28.0001641,84.1750137 L28.0001641,66.6750684 L59.5001914,66.6750684 L101.500123,66.6750684 L133.00015,66.6750684 L133.00015,84.1750137 Z M139.999877,80.6751504 L139.999877,66.6750684 L146.999918,66.6750684 C150.85983,66.6750684 153.999959,69.8151973 153.999959,73.6751094 C153.999959,77.5350215 150.85983,80.6751504 146.999918,80.6751504 L139.999877,80.6751504 Z" id="Shape"></path>
                <path d="M108.429727,86.8173633 C108.387904,86.5934727 108.317781,86.3727266 108.230049,86.1629863 C108.142631,85.9494727 108.034145,85.7463359 107.908049,85.5573496 C107.782268,85.3649043 107.635418,85.1862949 107.474104,85.0252949 C107.313104,84.8642949 107.134494,84.7174453 106.942049,84.5913496 C106.753062,84.4652539 106.549926,84.3567676 106.336412,84.2693496 C106.126357,84.1819316 105.90624,84.1118086 105.68235,84.0699863 C105.230795,83.9791094 104.768863,83.9791094 104.317309,84.0699863 C104.093418,84.112123 103.872672,84.1819316 103.662932,84.2693496 C103.449418,84.3567676 103.24691,84.4652539 103.057924,84.5913496 C102.865164,84.7174453 102.686555,84.8642949 102.525555,85.0252949 C102.364555,85.1862949 102.217705,85.3649043 102.091609,85.5573496 C101.965828,85.7463359 101.857027,85.9494727 101.769609,86.1629863 C101.682191,86.373041 101.612068,86.5934727 101.570561,86.8173633 C101.52465,87.0412539 101.500437,87.272377 101.500437,87.4997266 C101.500437,87.7270762 101.52465,87.9581992 101.570561,88.1820898 C101.612068,88.4059805 101.682191,88.6267266 101.769609,88.8364668 C101.857027,89.0499805 101.965828,89.2531172 102.091609,89.4421035 C102.217705,89.6345488 102.364555,89.8131582 102.525555,89.9741582 C102.686555,90.1351582 102.865164,90.2820078 103.057924,90.4081035 C103.24691,90.5341992 103.449418,90.6426855 103.662932,90.7301035 C103.873301,90.8175215 104.093418,90.8876445 104.317309,90.9294668 C104.541199,90.9750625 104.772322,90.9995898 104.999672,90.9995898 C105.226707,90.9995898 105.458145,90.9750625 105.682035,90.9294668 C105.905926,90.8873301 106.126672,90.8175215 106.336098,90.7301035 C106.549611,90.6426855 106.752748,90.5341992 106.941734,90.4081035 C107.13418,90.2820078 107.312789,90.1351582 107.473789,89.9741582 C107.635104,89.8131582 107.782268,89.6345488 107.907734,89.4421035 C108.03383,89.2531172 108.142316,89.0499805 108.229734,88.8364668 C108.317152,88.6264121 108.387275,88.4059805 108.429098,88.1820898 C108.474693,87.9581992 108.499221,87.7270762 108.499221,87.4997266 C108.499535,87.272377 108.475008,87.0415684 108.429727,86.8173633 Z" id="Shape"></path>
                <path d="M122.499932,73.6751094 L87.500041,73.6751094 C85.5674121,73.6751094 84.0001777,75.2420293 84.0001777,77.1749727 L84.0001777,87.500041 C84.0001777,89.4329844 85.5674121,90.9999043 87.500041,90.9999043 L94.500082,90.9999043 C96.4327109,90.9999043 97.9999453,89.4329844 97.9999453,87.500041 C97.9999453,85.5670977 96.4327109,84.0001777 94.500082,84.0001777 L91.0002187,84.0001777 L91.0002187,80.6751504 L119.000068,80.6751504 L119.000068,84.0001777 L115.500205,84.0001777 C113.567576,84.0001777 112.000342,85.5670977 112.000342,87.500041 C112.000342,89.4329844 113.567576,90.9999043 115.500205,90.9999043 L122.500246,90.9999043 C124.432875,90.9999043 126.000109,89.4329844 126.000109,87.500041 L126.000109,77.1749727 C126.000109,75.2420293 124.432561,73.6751094 122.499932,73.6751094 Z" id="Shape"></path>
            </g>
        </g>
    </g>
</svg>